<svg width="60" height="60" viewBox="0 0 60 60" fill="none" xmlns="http://www.w3.org/2000/svg">
<path d="M50.575 18.1L30 30L9.42499 18.1C9.84736 17.3688 10.4498 16.7577 11.175 16.325L27.5 6.90002C29.05 6.02502 30.95 6.02502 32.5 6.90002L48.825 16.325C49.55 16.7575 50.1525 17.37 50.575 18.1Z" fill="#E1BFFF"/>
<path d="M30 30V53.75C29.2118 53.7488 28.434 53.5693 27.725 53.225L11.25 43.7C10.4912 43.261 9.86088 42.6305 9.42215 41.8715C8.98343 41.1125 8.75166 40.2516 8.75 39.375V20.625C8.75413 19.7393 8.98661 18.8696 9.425 18.1L30 30Z" fill="#CA8FFF"/>
<path d="M51.25 20.625V39.375C51.2483 40.2516 51.0166 41.1125 50.5778 41.8715C50.1391 42.6305 49.5088 43.261 48.75 43.7L32.2 53.25C31.5125 53.575 30.76 53.745 30 53.75V30L50.575 18.1C51.0125 18.87 51.245 19.74 51.25 20.625Z" fill="#A75FE9"/>
</svg>
